HIERARCHY
ROOT Hips
{
  OFFSET 0.000 65.551 0.000
  CHANNELS 6 Xposition Yposition Zposition Zrotation Xrotation Yrotation
  JOINT LeftUpLeg
  {
    OFFSET 7.473 0.931 3.416
    CHANNELS 6 Xposition Yposition Zposition Zrotation Xrotation Yrotation
    JOINT LeftLeg
    {
      OFFSET 0.000 -31.435 0.000
      CHANNELS 6 Xposition Yposition Zposition Zrotation Xrotation Yrotation
      JOINT LeftFoot
      {
        OFFSET 0.000 -35.047 0.000
        CHANNELS 6 Xposition Yposition Zposition Zrotation Xrotation Yrotation
        End Site
        {
          OFFSET 0.000 0.000 9.409
        }
      }
    }
  }
  JOINT RightUpLeg
  {
    OFFSET -7.473 0.931 3.416
    CHANNELS 6 Xposition Yposition Zposition Zrotation Xrotation Yrotation
    JOINT RightLeg
    {
      OFFSET 0.000 -31.435 0.000
      CHANNELS 6 Xposition Yposition Zposition Zrotation Xrotation Yrotation
      JOINT RightFoot
      {
        OFFSET 0.000 -35.047 0.000
        CHANNELS 6 Xposition Yposition Zposition Zrotation Xrotation Yrotation
        End Site
        {
          OFFSET 0.000 0.000 9.409
        }
      }
    }
  }
  JOINT Spine
  {
    OFFSET 0.000 28.821 0.000
    CHANNELS 6 Xposition Yposition Zposition Zrotation Xrotation Yrotation
    JOINT Spine1
    {
      OFFSET 0.000 21.148 0.000
      CHANNELS 6 Xposition Yposition Zposition Zrotation Xrotation Yrotation
      JOINT LeftShoulder
      {
        OFFSET 1.582 -0.424 0.411
        CHANNELS 6 Xposition Yposition Zposition Zrotation Xrotation Yrotation
        JOINT LeftArm
        {
          OFFSET 15.520 0.000 0.000
          CHANNELS 6 Xposition Yposition Zposition Zrotation Xrotation Yrotation
          JOINT LeftForeArm
          {
            OFFSET 27.228 0.000 0.000
            CHANNELS 6 Xposition Yposition Zposition Zrotation Xrotation Yrotation
            JOINT LeftHand
            {
              OFFSET 22.918 0.000 0.000
              CHANNELS 6 Xposition Yposition Zposition Zrotation Xrotation Yrotation
              JOINT LeftHandThumb1
              {
                OFFSET 4.877 -1.044 3.608
                CHANNELS 6 Xposition Yposition Zposition Zrotation Xrotation Yrotation
                JOINT LeftHandThumb2
                {
                  OFFSET 2.665 0.000 0.000
                  CHANNELS 6 Xposition Yposition Zposition Zrotation Xrotation Yrotation
                  JOINT LeftHandThumb3
                  {
                    OFFSET 2.543 0.000 -0.000
                    CHANNELS 6 Xposition Yposition Zposition Zrotation Xrotation Yrotation
                    End Site
                    {
                      OFFSET 2.667 -0.000 0.000
                    }
                  }
                }
              }
              JOINT LeftHandIndex1
              {
                OFFSET 9.232 -0.301 2.144
                CHANNELS 6 Xposition Yposition Zposition Zrotation Xrotation Yrotation
                JOINT LeftHandIndex2
                {
                  OFFSET 4.225 0.000 0.000
                  CHANNELS 6 Xposition Yposition Zposition Zrotation Xrotation Yrotation
                  JOINT LeftHandIndex3
                  {
                    OFFSET 2.654 0.000 -0.000
                    CHANNELS 6 Xposition Yposition Zposition Zrotation Xrotation Yrotation
                    End Site
                    {
                      OFFSET 1.958 0.000 -0.000
                    }
                  }
                }
              }
              JOINT LeftHandMiddle1
              {
                OFFSET 8.920 0.000 -0.000
                CHANNELS 6 Xposition Yposition Zposition Zrotation Xrotation Yrotation
                JOINT LeftHandMiddle2
                {
                  OFFSET 4.863 0.000 0.000
                  CHANNELS 6 Xposition Yposition Zposition Zrotation Xrotation Yrotation
                  JOINT LeftHandMiddle3
                  {
                    OFFSET 2.765 -0.000 0.000
                    CHANNELS 6 Xposition Yposition Zposition Zrotation Xrotation Yrotation
                    End Site
                    {
                      OFFSET 2.006 0.000 0.000
                    }
                  }
                }
              }
              JOINT LeftHandRing1
              {
                OFFSET 8.689 -0.126 -2.087
                CHANNELS 6 Xposition Yposition Zposition Zrotation Xrotation Yrotation
                JOINT LeftHandRing2
                {
                  OFFSET 4.538 0.000 -0.000
                  CHANNELS 6 Xposition Yposition Zposition Zrotation Xrotation Yrotation
                  JOINT LeftHandRing3
                  {
                    OFFSET 2.305 0.000 0.000
                    CHANNELS 6 Xposition Yposition Zposition Zrotation Xrotation Yrotation
                    End Site
                    {
                      OFFSET 1.923 0.000 0.000
                    }
                  }
                }
              }
              JOINT LeftHandPinky1
              {
                OFFSET 8.391 -0.817 -3.758
                CHANNELS 6 Xposition Yposition Zposition Zrotation Xrotation Yrotation
                JOINT LeftHandPinky2
                {
                  OFFSET 3.044 0.000 0.000
                  CHANNELS 6 Xposition Yposition Zposition Zrotation Xrotation Yrotation
                  JOINT LeftHandPinky3
                  {
                    OFFSET 1.975 -0.000 -0.000
                    CHANNELS 6 Xposition Yposition Zposition Zrotation Xrotation Yrotation
                    End Site
                    {
                      OFFSET 1.667 0.000 0.000
                    }
                  }
                }
              }
            }
          }
        }
      }
      JOINT RightShoulder
      {
        OFFSET -1.582 -0.424 0.411
        CHANNELS 6 Xposition Yposition Zposition Zrotation Xrotation Yrotation
        JOINT RightArm
        {
          OFFSET -15.520 0.000 0.000
          CHANNELS 6 Xposition Yposition Zposition Zrotation Xrotation Yrotation
          JOINT RightForeArm
          {
            OFFSET -27.228 0.000 0.000
            CHANNELS 6 Xposition Yposition Zposition Zrotation Xrotation Yrotation
            JOINT RightHand
            {
              OFFSET -22.918 0.000 0.000
              CHANNELS 6 Xposition Yposition Zposition Zrotation Xrotation Yrotation
              JOINT RightHandThumb1
              {
                OFFSET -4.877 -1.044 3.608
                CHANNELS 6 Xposition Yposition Zposition Zrotation Xrotation Yrotation
                JOINT RightHandThumb2
                {
                  OFFSET -2.665 -0.000 -0.000
                  CHANNELS 6 Xposition Yposition Zposition Zrotation Xrotation Yrotation
                  JOINT RightHandThumb3
                  {
                    OFFSET -2.543 0.000 -0.000
                    CHANNELS 6 Xposition Yposition Zposition Zrotation Xrotation Yrotation
                    End Site
                    {
                      OFFSET -2.667 0.000 0.000
                    }
                  }
                }
              }
              JOINT RightHandIndex1
              {
                OFFSET -9.232 -0.301 2.144
                CHANNELS 6 Xposition Yposition Zposition Zrotation Xrotation Yrotation
                JOINT RightHandIndex2
                {
                  OFFSET -4.225 -0.000 -0.000
                  CHANNELS 6 Xposition Yposition Zposition Zrotation Xrotation Yrotation
                  JOINT RightHandIndex3
                  {
                    OFFSET -2.654 0.000 0.000
                    CHANNELS 6 Xposition Yposition Zposition Zrotation Xrotation Yrotation
                    End Site
                    {
                      OFFSET -1.958 -0.000 -0.000
                    }
                  }
                }
              }
              JOINT RightHandMiddle1
              {
                OFFSET -8.920 -0.000 -0.000
                CHANNELS 6 Xposition Yposition Zposition Zrotation Xrotation Yrotation
                JOINT RightHandMiddle2
                {
                  OFFSET -4.863 0.000 0.000
                  CHANNELS 6 Xposition Yposition Zposition Zrotation Xrotation Yrotation
                  JOINT RightHandMiddle3
                  {
                    OFFSET -2.765 0.000 -0.000
                    CHANNELS 6 Xposition Yposition Zposition Zrotation Xrotation Yrotation
                    End Site
                    {
                      OFFSET -2.006 0.000 -0.000
                    }
                  }
                }
              }
              JOINT RightHandRing1
              {
                OFFSET -8.689 -0.126 -2.087
                CHANNELS 6 Xposition Yposition Zposition Zrotation Xrotation Yrotation
                JOINT RightHandRing2
                {
                  OFFSET -4.538 0.000 -0.000
                  CHANNELS 6 Xposition Yposition Zposition Zrotation Xrotation Yrotation
                  JOINT RightHandRing3
                  {
                    OFFSET -2.305 0.000 0.000
                    CHANNELS 6 Xposition Yposition Zposition Zrotation Xrotation Yrotation
                    End Site
                    {
                      OFFSET -1.923 -0.000 0.000
                    }
                  }
                }
              }
              JOINT RightHandPinky1
              {
                OFFSET -8.391 -0.817 -3.758
                CHANNELS 6 Xposition Yposition Zposition Zrotation Xrotation Yrotation
                JOINT RightHandPinky2
                {
                  OFFSET -3.044 0.000 -0.000
                  CHANNELS 6 Xposition Yposition Zposition Zrotation Xrotation Yrotation
                  JOINT RightHandPinky3
                  {
                    OFFSET -1.975 -0.000 -0.000
                    CHANNELS 6 Xposition Yposition Zposition Zrotation Xrotation Yrotation
                    End Site
                    {
                      OFFSET -1.667 -0.000 0.000
                    }
                  }
                }
              }
            }
          }
        }
      }
      JOINT Neck
      {
        OFFSET 0.000 0.698 0.000
        CHANNELS 6 Xposition Yposition Zposition Zrotation Xrotation Yrotation
        JOINT Head
        {
          OFFSET 0.000 6.312 0.000
          CHANNELS 6 Xposition Yposition Zposition Zrotation Xrotation Yrotation
          End Site
          {
            OFFSET 0.000 14.292 0.000
          }
        }
      }
    }
  }
}
MOTION
Frames:	4
Frame Time:	0.033333
-68.24831 77.61668 -212.30396 1.97308 -0.12591 16.91941 7.35136 -0.01391 3.54590 -8.79440 3.58670 5.81932 0.00134 -32.77582 -0.00844 4.50302 -7.26315 -0.78369 0.00299 -32.88665 0.00503 0.71738 17.19270 -2.43009 -7.19343 1.33976 3.54144 4.16501 -4.09182 18.96335 0.00155 -28.99830 -0.00408 4.29388 7.84328 -13.56157 0.07953 -32.39132 0.02148 0.96304 9.68109 -5.63740 -0.00092 30.02986 -0.00538 -0.14710 2.22196 1.04055 -0.00098 22.03551 0.00088 -0.12236 2.49266 1.15265 1.71433 -0.65922 0.42650 -19.75189 4.64466 -12.69993 17.04593 0.00551 0.00602 -62.42653 1.27789 -0.48228 27.91368 -0.00066 -0.00201 -5.49748 -0.70930 -21.27259 23.10157 0.00212 0.00265 -14.63469 2.39967 8.00022 4.87700 -1.04400 3.60799 -38.84874 -18.17666 4.02960 2.66500 0.00000 0.00002 0.00000 0.00000 5.00000 2.54300 0.00001 -0.00002 0.00001 0.00000 60.00000 9.23200 -0.30100 2.14399 2.00000 0.00000 -0.00000 4.22500 0.00001 0.00000 2.00000 0.00000 -0.00000 2.65400 0.00000 -0.00002 2.00000 -0.00000 0.00000 8.92000 0.00000 -0.00002 -80.00000 -0.00000 0.00000 4.86300 0.00001 0.00000 -90.00000 -0.00000 0.00000 2.76500 -0.00001 0.00001 -70.00000 -0.00000 0.00000 8.68900 -0.12600 -2.08700 -80.00000 -0.00000 0.00000 4.53799 0.00000 -0.00001 -90.00000 -0.00000 0.00000 2.30500 0.00001 0.00000 -70.00000 -0.00000 0.00000 8.39100 -0.81700 -3.75803 2.00000 0.00000 -0.00000 3.04400 0.00000 0.00002 2.00000 0.00000 -0.00000 1.97500 -0.00001 -0.00001 2.00000 -0.00000 0.00000 -1.56539 -0.54016 0.42619 17.99581 4.69705 14.16189 -15.31437 0.00782 0.00634 55.86688 -0.11567 -8.70765 -26.57095 0.00067 -0.00017 3.99230 8.44640 29.25872 -23.11658 -0.00339 0.00653 19.44145 19.10088 8.42553 -4.87700 -1.04400 3.60800 40.90540 11.75460 -3.91034 -2.66501 -0.00002 -0.00001 -0.00000 0.00000 -5.00000 -2.54299 0.00002 -0.00001 0.00001 0.00000 -60.00001 -9.23200 -0.30100 2.14400 -2.00000 0.00000 -0.00000 -4.22500 -0.00001 -0.00002 -2.00000 0.00000 0.00000 -2.65399 0.00001 0.00000 -2.00000 -0.00000 0.00000 -8.91999 -0.00001 -0.00001 80.00000 -0.00000 0.00001 -4.86300 0.00000 0.00000 90.00000 -0.00001 0.00001 -2.76500 0.00001 -0.00001 70.00000 -0.00000 0.00000 -8.68899 -0.12600 -2.08700 80.00000 -0.00000 0.00001 -4.53802 0.00001 -0.00001 90.00000 -0.00001 0.00001 -2.30502 0.00001 0.00000 70.00000 -0.00000 0.00000 -8.39099 -0.81700 -3.75800 -2.00000 0.00000 -0.00000 -3.04400 0.00000 -0.00001 -2.00000 0.00000 0.00000 -1.97500 -0.00001 -0.00001 -2.00000 -0.00000 0.00000 -0.00001 0.72415 0.00002 -0.00000 -0.00003 0.00000 -0.00732 6.50073 0.00114 -5.51298 -1.69189 -10.71945 
-68.24831 77.61668 -212.29794 1.97056 -0.11771 16.90751 7.35136 -0.01391 3.54590 -8.76915 3.58684 5.79848 0.00134 -32.78097 -0.00844 4.47296 -7.27480 -0.80423 0.00299 -32.88665 0.00503 0.70944 17.20185 -2.40202 -7.19343 1.33976 3.54144 4.20528 -4.09189 18.97332 0.00155 -28.98147 -0.00408 3.97094 7.92490 -13.61114 0.06821 -31.65235 0.02148 0.94548 9.73358 -5.50458 -0.00092 30.02986 -0.00538 -0.14107 2.22196 1.03083 -0.00098 22.03551 0.00088 -0.11640 2.50474 1.14258 1.71433 -0.65922 0.42650 -19.75121 4.64451 -12.70843 17.03887 0.00551 0.00602 -62.42818 1.30920 -0.47506 27.91368 -0.00066 -0.00201 -5.48537 -0.72273 -21.29742 23.10157 0.00212 0.00265 -13.72099 1.74524 8.60740 4.87700 -1.04400 3.60799 -38.84874 -18.17666 4.02960 2.66500 0.00000 0.00002 0.00000 0.00000 5.00000 2.54300 0.00001 -0.00002 0.00001 0.00000 60.00000 9.23200 -0.30100 2.14399 2.00000 0.00000 -0.00000 4.22500 0.00001 0.00000 2.00000 0.00000 -0.00000 2.65400 0.00000 -0.00002 2.00000 -0.00000 0.00000 8.92000 0.00000 -0.00002 -80.00000 -0.00000 0.00000 4.86300 0.00001 0.00000 -90.00000 -0.00000 0.00000 2.76500 -0.00001 0.00001 -70.00000 -0.00000 0.00000 8.68900 -0.12600 -2.08700 -80.00000 -0.00000 0.00000 4.53799 0.00000 -0.00001 -90.00000 -0.00000 0.00000 2.30500 0.00001 0.00000 -70.00000 -0.00000 0.00000 8.39100 -0.81700 -3.75803 2.00000 0.00000 -0.00000 3.04400 0.00000 0.00002 2.00000 0.00000 -0.00000 1.97500 -0.00001 -0.00001 2.00000 -0.00000 0.00000 -1.56539 -0.54016 0.42619 17.98779 4.69705 14.16189 -15.32172 0.00782 0.00634 55.88200 -0.08860 -8.67350 -26.56843 0.00067 -0.00017 4.01983 8.43686 29.37574 -23.11658 -0.00339 0.00653 19.62410 19.19083 8.20779 -4.87700 -1.04400 3.60800 40.90540 11.75460 -3.91034 -2.66501 -0.00002 -0.00001 -0.00000 0.00000 -5.00000 -2.54299 0.00002 -0.00001 0.00001 0.00000 -60.00001 -9.23200 -0.30100 2.14400 -2.00000 0.00000 -0.00000 -4.22500 -0.00001 -0.00002 -2.00000 0.00000 0.00000 -2.65399 0.00001 0.00000 -2.00000 -0.00000 0.00000 -8.91999 -0.00001 -0.00001 80.00000 -0.00000 0.00001 -4.86300 0.00000 0.00000 90.00000 -0.00001 0.00001 -2.76500 0.00001 -0.00001 70.00000 -0.00000 0.00000 -8.68899 -0.12600 -2.08700 80.00000 -0.00000 0.00001 -4.53802 0.00001 -0.00001 90.00000 -0.00001 0.00001 -2.30502 0.00001 0.00000 70.00000 -0.00000 0.00000 -8.39099 -0.81700 -3.75800 -2.00000 0.00000 -0.00000 -3.04400 0.00000 -0.00001 -2.00000 0.00000 0.00000 -1.97500 -0.00001 -0.00001 -2.00000 -0.00000 0.00000 -0.00001 0.72415 0.00002 -0.00000 -0.00003 0.00000 -0.00732 6.50073 0.00114 -5.47180 -1.76848 -10.69844 
-68.24831 77.61668 -212.29211 1.96829 -0.11036 16.89114 7.35136 -0.01391 3.54590 -8.75025 3.58692 5.78484 0.00134 -32.78827 -0.00844 4.44972 -7.28656 -0.82193 0.00299 -32.88665 0.00503 0.70219 17.20763 -2.37678 -7.19343 1.33830 3.54144 4.20175 -4.10353 18.94452 0.00155 -28.97317 -0.00408 4.42097 7.61576 -13.59430 0.08156 -32.73371 0.02148 0.98438 9.83529 -5.67416 -0.00092 30.02986 -0.00538 -0.13576 2.22197 1.02561 -0.00098 22.03551 0.00088 -0.11200 2.51485 1.13682 1.71433 -0.65922 0.42650 -19.74193 4.64423 -12.72369 17.03229 0.00551 0.00602 -62.44317 1.33086 -0.45604 27.91368 -0.00066 -0.00201 -5.46606 -0.74564 -21.31415 23.10157 0.00212 0.00265 -13.61747 1.66518 9.47989 4.87700 -1.04400 3.60799 -38.84874 -18.17666 4.02960 2.66500 0.00000 0.00002 0.00000 0.00000 5.00000 2.54300 0.00001 -0.00002 0.00001 0.00000 60.00000 9.23200 -0.30100 2.14399 2.00000 0.00000 -0.00000 4.22500 0.00001 0.00000 2.00000 0.00000 -0.00000 2.65400 0.00000 -0.00002 2.00000 -0.00000 0.00000 8.92000 0.00000 -0.00002 -80.00000 -0.00000 0.00000 4.86300 0.00001 0.00000 -90.00000 -0.00000 0.00000 2.76500 -0.00001 0.00001 -70.00000 -0.00000 0.00000 8.68900 -0.12600 -2.08700 -80.00000 -0.00000 0.00000 4.53799 0.00000 -0.00001 -90.00000 -0.00000 0.00000 2.30500 0.00001 0.00000 -70.00000 -0.00000 0.00000 8.39100 -0.81700 -3.75803 2.00000 0.00000 -0.00000 3.04400 0.00000 0.00002 2.00000 0.00000 -0.00000 1.97500 -0.00001 -0.00001 2.00000 -0.00000 0.00000 -1.56539 -0.54016 0.42619 17.97586 4.69705 14.16189 -15.33026 0.00782 0.00634 55.90000 -0.06612 -8.64294 -26.56034 0.00067 -0.00017 4.04556 8.44346 29.45469 -23.11658 -0.00339 0.00653 19.97007 19.30462 8.04243 -4.87700 -1.04400 3.60800 40.90540 11.75460 -3.91034 -2.66501 -0.00002 -0.00001 -0.00000 0.00000 -5.00000 -2.54299 0.00002 -0.00001 0.00001 0.00000 -60.00001 -9.23200 -0.30100 2.14400 -2.00000 0.00000 -0.00000 -4.22500 -0.00001 -0.00002 -2.00000 0.00000 0.00000 -2.65399 0.00001 0.00000 -2.00000 -0.00000 0.00000 -8.91999 -0.00001 -0.00001 80.00000 -0.00000 0.00001 -4.86300 0.00000 0.00000 90.00000 -0.00001 0.00001 -2.76500 0.00001 -0.00001 70.00000 -0.00000 0.00000 -8.68899 -0.12600 -2.08700 80.00000 -0.00000 0.00001 -4.53802 0.00001 -0.00001 90.00000 -0.00001 0.00001 -2.30502 0.00001 0.00000 70.00000 -0.00000 0.00000 -8.39099 -0.81700 -3.75800 -2.00000 0.00000 -0.00000 -3.04400 0.00000 -0.00001 -2.00000 0.00000 0.00000 -1.97500 -0.00001 -0.00001 -2.00000 -0.00000 0.00000 -0.00001 0.72415 0.00002 -0.00000 -0.00003 0.00000 -0.00732 6.50073 0.00114 -5.42983 -1.81580 -10.59681 
-68.24371 77.61829 -212.28751 1.96445 -0.09977 16.88362 7.35136 -0.01145 3.54590 -8.73872 3.58624 5.75779 0.00134 -32.79618 -0.00844 4.43611 -7.29644 -0.83068 0.00299 -32.88665 0.00503 0.69558 17.21461 -2.35355 -7.19343 1.33771 3.54144 4.18775 -4.12339 18.89873 0.00155 -28.96663 -0.00408 4.76986 7.41399 -13.57094 0.07750 -33.54413 0.02148 1.01004 9.88773 -5.79255 -0.00092 30.02986 -0.00538 -0.12917 2.22197 1.01776 -0.00098 22.03551 0.00088 -0.10590 2.52570 1.12864 1.71433 -0.65922 0.42650 -19.72771 4.64402 -12.73520 17.02757 0.00551 0.00602 -62.46665 1.35783 -0.44380 27.91368 -0.00066 -0.00201 -5.44527 -0.76874 -21.32138 23.10379 0.00212 0.00265 -13.19187 1.37608 9.83306 4.87700 -1.04400 3.60799 -38.84874 -18.17666 4.02960 2.66500 0.00000 0.00002 0.00000 0.00000 5.00000 2.54300 0.00001 -0.00002 0.00001 0.00000 60.00000 9.23200 -0.30100 2.14399 2.00000 0.00000 -0.00000 4.22500 0.00001 0.00000 2.00000 0.00000 -0.00000 2.65400 0.00000 -0.00002 2.00000 -0.00000 0.00000 8.92000 0.00000 -0.00002 -80.00000 -0.00000 0.00000 4.86300 0.00001 0.00000 -90.00000 -0.00000 0.00000 2.76500 -0.00001 0.00001 -70.00000 -0.00000 0.00000 8.68900 -0.12600 -2.08700 -80.00000 -0.00000 0.00000 4.53799 0.00000 -0.00001 -90.00000 -0.00000 0.00000 2.30500 0.00001 0.00000 -70.00000 -0.00000 0.00000 8.39100 -0.81700 -3.75803 2.00000 0.00000 -0.00000 3.04400 0.00000 0.00002 2.00000 0.00000 -0.00000 1.97500 -0.00001 -0.00001 2.00000 -0.00000 0.00000 -1.56539 -0.54016 0.42619 17.96199 4.69392 14.16183 -15.33753 0.00782 0.00634 55.91377 -0.04589 -8.58259 -26.54257 0.00067 -0.00017 4.07914 8.44974 29.44026 -23.11981 -0.00339 0.00653 20.13886 19.43840 8.10935 -4.87700 -1.04400 3.60800 40.90540 11.75460 -3.91034 -2.66501 -0.00002 -0.00001 -0.00000 0.00000 -5.00000 -2.54299 0.00002 -0.00001 0.00001 0.00000 -60.00001 -9.23200 -0.30100 2.14400 -2.00000 0.00000 -0.00000 -4.22500 -0.00001 -0.00002 -2.00000 0.00000 0.00000 -2.65399 0.00001 0.00000 -2.00000 -0.00000 0.00000 -8.91999 -0.00001 -0.00001 80.00000 -0.00000 0.00001 -4.86300 0.00000 0.00000 90.00000 -0.00001 0.00001 -2.76500 0.00001 -0.00001 70.00000 -0.00000 0.00000 -8.68899 -0.12600 -2.08700 80.00000 -0.00000 0.00001 -4.53802 0.00001 -0.00001 90.00000 -0.00001 0.00001 -2.30502 0.00001 0.00000 70.00000 -0.00000 0.00000 -8.39099 -0.81700 -3.75800 -2.00000 0.00000 -0.00000 -3.04400 0.00000 -0.00001 -2.00000 0.00000 0.00000 -1.97500 -0.00001 -0.00001 -2.00000 -0.00000 0.00000 -0.00001 0.72415 0.00002 -0.00000 -0.00003 0.00000 -0.00732 6.50073 0.00141 -5.40265 -1.87670 -10.51853 
